<svg width="27" height="28" viewBox="0 0 27 28" fill="none" xmlns="http://www.w3.org/2000/svg">
<path d="M3.54785 10.2793V18.3697C3.54785 20.0499 3.54785 20.8899 3.87483 21.5317C4.16245 22.0962 4.62139 22.5551 5.18588 22.8427C5.82762 23.1697 6.6677 23.1697 8.34786 23.1697H18.6522C20.3323 23.1697 21.1724 23.1697 21.8141 22.8427C22.3786 22.5551 22.8376 22.0962 23.1252 21.5317C23.4522 20.8899 23.4522 20.0499 23.4522 18.3697V10.2793M3.54785 10.2793V10.2793C3.54785 8.90095 3.54785 8.21178 3.77002 7.66707C4.07477 6.91988 4.66768 6.32697 5.41488 6.02221C5.95958 5.80005 6.64875 5.80005 8.0271 5.80005H18.9729C20.3513 5.80005 21.0404 5.80005 21.5851 6.02221C22.3323 6.32697 22.9253 6.91988 23.23 7.66707C23.4522 8.21178 23.4522 8.90095 23.4522 10.2793V10.2793M3.54785 10.2793H23.4522" stroke="#2A2B2D" stroke-width="1.2"/>
<path d="M7.5 4.12665V7.44493" stroke="#2A2B2D" stroke-width="1.2" stroke-linecap="round"/>
<path d="M19.5 4.14093V7.45921" stroke="#2A2B2D" stroke-width="1.2" stroke-linecap="round"/>
<path d="M11.6883 18.7435C11.3601 18.7435 11.0529 18.7056 10.7668 18.6299C10.4807 18.5541 10.2282 18.4447 10.0094 18.3017C9.87478 18.2091 9.79063 18.1039 9.75697 17.9861C9.7233 17.8599 9.73172 17.742 9.78221 17.6326C9.84112 17.5232 9.92948 17.4517 10.0473 17.4181C10.1651 17.3844 10.304 17.4138 10.4639 17.5064C10.6406 17.599 10.8173 17.6663 10.994 17.7084C11.1792 17.7505 11.3685 17.7715 11.5621 17.7715C11.8482 17.7715 12.0754 17.7126 12.2437 17.5948C12.412 17.477 12.4962 17.3002 12.4962 17.0646C12.4962 16.8458 12.4162 16.6943 12.2563 16.6102C12.1049 16.5176 11.8861 16.4713 11.5999 16.4713H11.0319C10.8636 16.4713 10.7332 16.4292 10.6406 16.3451C10.548 16.2609 10.5017 16.1431 10.5017 15.9916C10.5017 15.8318 10.548 15.7097 10.6406 15.6256C10.7332 15.5414 10.8636 15.4993 11.0319 15.4993H11.4611C11.7388 15.4993 11.9534 15.4489 12.1049 15.3479C12.2648 15.2469 12.3447 15.0912 12.3447 14.8808C12.3447 14.6873 12.269 14.5358 12.1175 14.4264C11.9744 14.3086 11.764 14.2497 11.4863 14.2497C11.3349 14.2497 11.175 14.2749 11.0067 14.3254C10.8468 14.3675 10.6953 14.4306 10.5522 14.5147C10.3839 14.5989 10.2366 14.6241 10.1104 14.5905C9.9926 14.5568 9.90424 14.4895 9.84533 14.3885C9.78642 14.2791 9.76959 14.1655 9.79483 14.0477C9.8285 13.9215 9.91686 13.8163 10.0599 13.7321C10.2871 13.5891 10.5438 13.4797 10.8299 13.4039C11.1161 13.3282 11.4022 13.2903 11.6883 13.2903C12.2437 13.2903 12.6813 13.4165 13.0011 13.669C13.3209 13.9215 13.4808 14.2623 13.4808 14.6915C13.4808 15.0365 13.3714 15.3268 13.1526 15.5625C12.9338 15.7897 12.6687 15.9412 12.3573 16.0169V15.8654C12.7444 15.9075 13.0516 16.0463 13.2788 16.282C13.5144 16.5092 13.6323 16.8164 13.6323 17.2035C13.6323 17.5232 13.5481 17.801 13.3798 18.0366C13.2115 18.2638 12.9801 18.4405 12.6855 18.5668C12.3994 18.6846 12.067 18.7435 11.6883 18.7435ZM14.8678 18.6804C14.5312 18.6804 14.3629 18.5163 14.3629 18.1881C14.3629 18.0366 14.405 17.9188 14.4891 17.8346C14.5733 17.7505 14.6995 17.7084 14.8678 17.7084H15.6631V14.3633H16.1554L15.1203 14.9692C14.952 15.0617 14.8005 15.087 14.6659 15.0449C14.5396 15.0028 14.4471 14.9271 14.3882 14.8177C14.3292 14.7083 14.3124 14.5863 14.3377 14.4516C14.3713 14.317 14.4723 14.2034 14.6406 14.1108L15.6757 13.5049C15.7851 13.446 15.8903 13.3955 15.9913 13.3534C16.0923 13.3113 16.2017 13.2903 16.3195 13.2903C16.4289 13.2903 16.5172 13.3156 16.5846 13.366C16.6603 13.4081 16.715 13.467 16.7487 13.5428C16.7907 13.6185 16.8118 13.7111 16.8118 13.8205V17.7084H17.3672C17.7038 17.7084 17.8721 17.8683 17.8721 18.1881C17.8721 18.348 17.8258 18.47 17.7333 18.5541C17.6491 18.6383 17.5271 18.6804 17.3672 18.6804H14.8678Z" fill="#2A2B2D"/>
</svg>
