<svg width="21" height="21" viewBox="0 0 21 21" fill="none" xmlns="http://www.w3.org/2000/svg">
<rect x="1" y="7" width="1" height="10" fill="black"/>
<rect x="19" y="7" width="1" height="10" fill="black"/>
<rect x="2" y="16" width="17" height="1" fill="black"/>
<rect x="2" y="7" width="1" height="1" fill="black"/>
<rect x="4" y="9" width="1" height="1" fill="black"/>
<rect x="8" y="9" width="1" height="1" fill="black"/>
<rect x="9" y="6" width="1" height="1" fill="black"/>
<rect x="10" y="5" width="1" height="1" fill="black"/>
<rect x="11" y="6" width="1" height="1" fill="black"/>
<rect x="12" y="7" width="1" height="1" fill="black"/>
<rect x="12" y="9" width="1" height="1" fill="black"/>
<rect x="16" y="9" width="1" height="1" fill="black"/>
<rect x="18" y="7" width="1" height="1" fill="black"/>
<rect x="14" y="7" width="2" height="1" fill="black"/>
<rect x="15" y="8" width="3" height="1" fill="black"/>
<rect x="11" y="8" width="3" height="1" fill="black"/>
<rect x="8" y="7" width="1" height="1" fill="black"/>
<rect x="7" y="8" width="3" height="1" fill="black"/>
<rect x="5" y="7" width="2" height="1" fill="black"/>
<rect x="3" y="8" width="3" height="1" fill="black"/>
<rect x="3" y="9" width="1" height="2" fill="#FFF907"/>
<rect x="5" y="10" width="1" height="1" fill="#FFF907"/>
<rect x="2" y="14" width="2" height="1" fill="#FFF907"/>
<rect x="5" y="14" width="1" height="1" fill="#FFF907"/>
<rect x="18" y="8" width="1" height="3" fill="#FFF907"/>
<rect x="17" y="9" width="1" height="2" fill="#FFF907"/>
<rect x="9" y="7" width="1" height="1" fill="#FFF907"/>
<rect x="10" y="6" width="1" height="1" fill="#FFF907"/>
<rect x="11" y="7" width="1" height="1" fill="#FFF907"/>
<rect x="9" y="9" width="1" height="1" fill="#FFF907"/>
<rect x="11" y="9" width="1" height="1" fill="#FFF907"/>
<rect x="2" y="8" width="1" height="3" fill="#FFF907"/>
<rect x="10" y="7" width="1" height="1" fill="white"/>
<rect x="9" y="12" width="1" height="1" fill="white"/>
<rect x="10" y="11" width="1" height="1" fill="#DAF7ED"/>
<rect x="11" y="13" width="1" height="1" fill="#5DE8F5"/>
<rect x="10" y="14" width="1" height="1" fill="#5DE8F5"/>
<rect x="14" y="12" width="1" height="1" fill="#DAF7ED"/>
<rect x="2" y="12" width="1" height="1" fill="#DAF7ED"/>
<rect x="2" y="13" width="1" height="1" fill="#0DDB5C"/>
<rect x="14" y="13" width="1" height="1" fill="#0DDB5C"/>
<rect x="15" y="12" width="1" height="1" fill="#0DDB5C"/>
<rect x="15" y="13" width="1" height="1" fill="#007A10"/>
<rect x="16" y="12" width="2" height="2" fill="#C99119"/>
<rect x="18" y="15" width="1" height="1" fill="#C99119"/>
<rect x="11" y="14" width="1" height="1" fill="#C99119"/>
<rect x="10" y="15" width="1" height="1" fill="#C99119"/>
<rect x="9" y="14" width="1" height="1" fill="#C99119"/>
<rect x="9" y="11" width="1" height="1" fill="#C99119"/>
<rect x="6" y="8" width="1" height="1" fill="#634306"/>
<rect x="5" y="9" width="3" height="1" fill="#634306"/>
<rect x="14" y="8" width="1" height="1" fill="#634306"/>
<rect x="13" y="9" width="3" height="1" fill="#634306"/>
<rect x="10" y="10" width="1" height="1" fill="#C99119"/>
<rect x="11" y="11" width="1" height="1" fill="#C99119"/>
<rect x="10" y="12" width="2" height="1" fill="#C4E7FB"/>
<rect x="9" y="13" width="2" height="1" fill="#73C8FF"/>
<rect x="3" y="12" width="2" height="2" fill="#C99119"/>
<rect x="7" y="12" width="2" height="2" fill="#C99119"/>
<rect x="12" y="12" width="2" height="2" fill="#C99119"/>
<rect x="2" y="15" width="1" height="1" fill="#C99119"/>
<rect x="3" y="15" width="1" height="1" fill="#FDAF26"/>
<rect x="8" y="15" width="1" height="1" fill="#FDAF26"/>
<rect x="9" y="10" width="1" height="1" fill="#FDAF26"/>
<rect x="4" y="11" width="1" height="1" fill="#FDAF26"/>
<rect x="11" y="10" width="1" height="1" fill="#FDAF26"/>
<rect x="12" y="15" width="1" height="1" fill="#FDAF26"/>
<rect x="17" y="15" width="1" height="1" fill="#FDAF26"/>
<rect x="12" y="11" width="5" height="1" fill="#FDAF26"/>
<rect x="12" y="14" width="5" height="1" fill="#FDE32E"/>
<rect x="6" y="14" width="3" height="1" fill="#FDE32E"/>
<rect x="9" y="15" width="1" height="1" fill="#FDE32E"/>
<rect x="11" y="15" width="1" height="1" fill="#FDE32E"/>
<rect x="17" y="14" width="2" height="1" fill="#FDFA00"/>
<rect x="17" y="11" width="2" height="1" fill="#FFE12B"/>
<rect x="4" y="14" width="1" height="1" fill="#FDE32E"/>
<rect x="2" y="11" width="2" height="1" fill="#FDE32E"/>
<rect x="5" y="11" width="1" height="1" fill="#FDE32E"/>
<rect x="6" y="10" width="3" height="1" fill="#FDE32E"/>
<rect x="12" y="10" width="5" height="1" fill="#FDE32E"/>
<rect x="4" y="10" width="1" height="1" fill="#FDE32E"/>
<rect x="10" y="8" width="1" height="2" fill="#FDE32E"/>
<rect x="6" y="11" width="3" height="1" fill="#FDAF26"/>
<rect x="5" y="12" width="1" height="1" fill="#F92304"/>
<rect x="5" y="13" width="2" height="1" fill="#A11600"/>
<rect x="6" y="12" width="1" height="1" fill="#A11600"/>
<rect x="18" y="12" width="1" height="2" fill="#A11600"/>
<rect x="4" y="15" width="4" height="1" fill="#C99119"/>
<rect x="13" y="15" width="4" height="1" fill="#C99119"/>
</svg>
