<svg width="32" height="32" viewBox="0 0 32 32" fill="none" xmlns="http://www.w3.org/2000/svg">
<path fill-rule="evenodd" clip-rule="evenodd" d="M26.906 11.953C26.906 17.42 22.9007 21.9515 17.6644 22.7731V24.9597H20.4027V28.3826H17.6644V31.8054H14.2416V28.3826H11.1611V24.9597H14.2416V22.7731C9.00533 21.9515 5 17.42 5 11.953C5 5.90383 9.90383 1 15.953 1C22.0022 1 26.906 5.90383 26.906 11.953ZM15.953 19.1409C19.9228 19.1409 23.1409 15.9228 23.1409 11.953C23.1409 7.98324 19.9228 4.7651 15.953 4.7651C11.9832 4.7651 8.7651 7.98324 8.7651 11.953C8.7651 15.9228 11.9832 19.1409 15.953 19.1409Z" fill="#3F4A68"/>
</svg>
