<svg width="27" height="28" viewBox="0 0 27 28" fill="none" xmlns="http://www.w3.org/2000/svg">
<path d="M4.5 8.5896V18.9805C4.5 20.6606 4.5 21.5007 4.82698 22.1424C5.1146 22.7069 5.57354 23.1659 6.13803 23.4535C6.77976 23.7805 7.61984 23.7805 9.3 23.7805H17.7C19.3802 23.7805 20.2202 23.7805 20.862 23.4535C21.4265 23.1659 21.8854 22.7069 22.173 22.1424C22.5 21.5007 22.5 20.6606 22.5 18.9805V8.5896" stroke="#2A2B2D" stroke-width="1.2"/>
<path d="M3 9.5L11.1185 4.86084C11.9866 4.36483 12.4206 4.11682 12.8815 4.0197C13.2894 3.93377 13.7106 3.93377 14.1185 4.0197C14.5794 4.11682 15.0134 4.36483 15.8815 4.86084L24 9.5" stroke="#2A2B2D" stroke-width="1.2" stroke-linecap="round"/>
<path d="M10.5 18.5C12 20.639 15 20.6757 16.5 18.5" stroke="#2A2B2D" stroke-width="1.2" stroke-linecap="round"/>
</svg>
