<svg width="32" height="32" viewBox="0 0 32 32" fill="none" xmlns="http://www.w3.org/2000/svg">
<path fill-rule="evenodd" clip-rule="evenodd" d="M26.6174 13.6107L29.698 10.8725L28.6711 4.02685L21.8255 3L18.9161 6.08054L23.5369 6.7651L20.4073 9.8947C18.5973 8.57241 16.3663 7.79195 13.953 7.79195C7.90383 7.79195 3 12.6958 3 18.745C3 24.7942 7.90383 29.698 13.953 29.698C20.0022 29.698 24.906 24.7942 24.906 18.745C24.906 16.3317 24.1256 14.1007 22.8033 12.2907L25.9329 9.16107L26.6174 13.6107ZM21.141 18.7449C21.141 22.7147 17.9228 25.9328 13.953 25.9328C9.98325 25.9328 6.76511 22.7147 6.76511 18.7449C6.76511 14.7751 9.98325 11.557 13.953 11.557C17.9228 11.557 21.141 14.7751 21.141 18.7449Z" fill="white"/>
</svg>
