<svg width="18" height="18" viewBox="0 0 18 18" fill="none" xmlns="http://www.w3.org/2000/svg">
<path d="M3.72227 7.55208C6.95735 0.998723 13.2519 3.29727 14.5033 7.67376" stroke="#2A2B2D" stroke-width="0.8" stroke-linecap="round" stroke-linejoin="round"/>
<path d="M3.04549 5.9425L3.37085 7.7753C3.38757 7.86947 3.39592 7.91655 3.42064 7.94927C3.44237 7.97804 3.47266 7.9992 3.50716 8.0097C3.54639 8.02165 3.59347 8.01329 3.68764 7.99657L5.52003 7.67128" stroke="#2A2B2D" stroke-width="0.8" stroke-linecap="round"/>
<path d="M14.1996 10.4479C10.9646 17.0013 4.66997 14.7027 3.4186 10.3262" stroke="#2A2B2D" stroke-width="0.8" stroke-linecap="round" stroke-linejoin="round"/>
<path d="M15 12.0636L14.4942 10.2722C14.4682 10.1801 14.4552 10.1341 14.4274 10.104C14.4029 10.0776 14.3706 10.0595 14.3353 10.0525C14.295 10.0445 14.249 10.0575 14.157 10.0835L12.366 10.5892" stroke="#2A2B2D" stroke-width="0.8" stroke-linecap="round"/>
</svg>
