<svg width="24" height="22" viewBox="0 0 24 22" fill="none" xmlns="http://www.w3.org/2000/svg">
<path fill-rule="evenodd" clip-rule="evenodd" d="M14 0H10V2H8V6H2V8H0V12H2V14H4V20H6V22H10V20H14V22H18V20H20V14H22V12H24V8H22V6H16V2H14V0ZM14 2V6H16V8H22V12H20V14H18V20H14V18H10V20H6V14H4V12H2V8H8V6H10V2H14Z" fill="#F17E07"/>
<rect x="8" y="6" width="4" height="4" fill="white"/>
<path fill-rule="evenodd" clip-rule="evenodd" d="M14 6H12V8H14V14H8V8H4H2V12H4V14H8V16H14H16V8H14V6Z" fill="#F4FC0A"/>
<path fill-rule="evenodd" clip-rule="evenodd" d="M10 10H8V14H10H14V12H10V10Z" fill="#FDDD16"/>
<path fill-rule="evenodd" clip-rule="evenodd" d="M14 8H12V10H10V12H14V10V8Z" fill="#FBBD4C"/>
<path fill-rule="evenodd" clip-rule="evenodd" d="M10 2H14V6H10V2ZM16 8H14V6H16V8ZM8 20H10V18H14V20H16H18V14H20V12H22V8H16V12V14V16H14H10H8V14H6V20H8Z" fill="#F8FFB2"/>
</svg>
