<svg width="18" height="18" viewBox="0 0 18 18" fill="none" xmlns="http://www.w3.org/2000/svg">
<path fill-rule="evenodd" clip-rule="evenodd" d="M13.1763 4.82686C13.0127 4.66326 12.8985 4.45238 12.8658 4.22333L12.7748 3.58657C12.6911 3.00031 12.3486 2.47 11.8016 2.24311C11.2537 2.01584 10.6354 2.14891 10.1611 2.50517L9.64567 2.89231C9.46084 3.03114 9.23115 3.09213 8.99999 3.09213C8.76882 3.09213 8.53913 3.03114 8.3543 2.89231L7.83885 2.50513C7.36466 2.14896 6.74643 2.01644 6.19862 2.24366C5.65171 2.4705 5.30888 3.00039 5.22515 3.58652L5.13421 4.22306C5.10143 4.45256 4.99087 4.66316 4.82694 4.82709C4.66301 4.99102 4.45241 5.10158 4.22291 5.13436L3.58642 5.22529C3.00015 5.30904 2.46984 5.65152 2.24295 6.19854C2.01569 6.74647 2.14876 7.36475 2.50501 7.83904L2.88507 8.34502C3.02847 8.53593 3.09562 8.86605 3.10016 9.10478C3.10443 9.32888 3.0342 9.45672 2.89958 9.63594L2.50498 10.1613C2.1488 10.6355 2.01629 11.2537 2.24351 11.8015C2.47035 12.3484 3.00023 12.6912 3.58637 12.775L4.22291 12.8659C4.45241 12.8987 4.66301 13.0093 4.82694 13.1732C4.99087 13.3371 5.10143 13.5477 5.13421 13.7772L5.22514 14.4137C5.30889 15 5.65136 15.5303 6.19839 15.7572C6.74632 15.9844 7.3646 15.8514 7.83889 15.4951L8.3543 15.108C8.53913 14.9691 8.76882 14.9081 8.99999 14.9081C9.23115 14.9081 9.46084 14.9691 9.64567 15.108L10.1611 15.4951C10.6353 15.8513 11.2535 15.9838 11.8014 15.7566C12.3483 15.5298 12.6911 14.9999 12.7748 14.4138L12.8649 13.7831C12.8982 13.5501 13.0756 13.2716 13.2406 13.1037C13.4005 12.941 13.5453 12.899 13.7712 12.8668L14.4136 12.775C14.9998 12.6912 15.5301 12.3488 15.757 11.8017C15.9843 11.2538 15.8512 10.6355 15.495 10.1612L15.1149 9.65526C14.9715 9.46435 14.9044 9.13422 14.8998 8.8955C14.8955 8.67139 14.9658 8.54356 15.1004 8.36434L15.495 7.839C15.8512 7.36481 15.9837 6.74658 15.7565 6.19877C15.5296 5.65186 14.9997 5.30903 14.4136 5.2253L13.7774 5.13442C13.548 5.10164 13.3402 4.99074 13.1763 4.82686ZM12.375 9.00009C12.375 10.8641 10.864 12.3751 9 12.3751C7.13604 12.3751 5.625 10.8641 5.625 9.00009C5.625 7.13613 7.13604 5.62509 9 5.62509C10.864 5.62509 12.375 7.13613 12.375 9.00009Z" fill="#D9D9D9"/>
</svg>
