<svg width="18" height="18" viewBox="0 0 18 18" fill="none" xmlns="http://www.w3.org/2000/svg">
<path d="M10.623 2.8418H6.65291C5.28031 2.8418 4.59401 2.8418 4.06975 3.10892C3.60859 3.34389 3.23366 3.71882 2.99869 4.17998C2.73157 4.70424 2.73157 5.39054 2.73157 6.76314V11.1746C2.73157 12.5472 2.73157 13.2335 2.99869 13.7578C3.23366 14.219 3.60859 14.5939 4.06975 14.8289C4.59401 15.096 5.28031 15.096 6.65291 15.096H11.0644C12.437 15.096 13.1233 15.096 13.6476 14.8289C14.1087 14.5939 14.4837 14.219 14.7186 13.7578C14.9858 13.2335 14.9858 12.5472 14.9858 11.1746V7.1333" stroke="#2A2B2D" stroke-width="0.8" stroke-linecap="round"/>
<path d="M12.7595 3.53536L8.17572 7.95135C8.0143 8.10686 7.93359 8.18462 7.86922 8.27384C7.81209 8.35304 7.76463 8.43877 7.72785 8.52923C7.68641 8.63114 7.66336 8.74082 7.61727 8.96018L7.34188 10.2708C7.32153 10.3677 7.31135 10.4161 7.32537 10.4508C7.33762 10.481 7.36145 10.5052 7.39156 10.5178C7.42601 10.5322 7.47457 10.5227 7.57168 10.5035L8.87592 10.2464C9.08632 10.2049 9.19152 10.1842 9.28995 10.1464C9.37732 10.1129 9.46057 10.0695 9.53806 10.017C9.62536 9.95794 9.70257 9.88355 9.85701 9.73476L14.4667 5.29379M12.7595 3.53536L13.2781 3.03571C13.5252 2.79763 13.6488 2.6786 13.7895 2.63575C13.9133 2.59807 14.0458 2.60054 14.1681 2.64281C14.3071 2.69087 14.4262 2.81443 14.6643 3.06155L15.0043 3.41455C15.2424 3.66168 15.3615 3.78524 15.4043 3.92596C15.442 4.04974 15.4395 4.18228 15.3972 4.30457C15.3492 4.4436 15.2256 4.56264 14.9785 4.80071L14.4667 5.29379M12.7595 3.53536L14.4667 5.29379" stroke="#2A2B2D" stroke-width="0.8" stroke-linejoin="round"/>
</svg>
