<svg width="18" height="18" viewBox="0 0 18 18" fill="none" xmlns="http://www.w3.org/2000/svg">
<path d="M3 4.65356L15 4.65356" stroke="#2A2B2D" stroke-width="0.8" stroke-linecap="round" stroke-linejoin="round"/>
<path d="M7 4.65353V4.08804C7 3.52798 7 3.24796 7.10899 3.03405C7.20487 2.84588 7.35785 2.6929 7.54601 2.59703C7.75992 2.48804 8.03995 2.48804 8.6 2.48804H9.4C9.96005 2.48804 10.2401 2.48804 10.454 2.59703C10.6422 2.6929 10.7951 2.84588 10.891 3.03405C11 3.24796 11 3.52798 11 4.08804V4.65353" stroke="#2A2B2D" stroke-width="0.8" stroke-linecap="round" stroke-linejoin="round"/>
<path d="M7.00232 7V13" stroke="#2A2B2D" stroke-width="0.8" stroke-linecap="round" stroke-linejoin="round"/>
<path d="M9.00836 7V13" stroke="#2A2B2D" stroke-width="0.8" stroke-linecap="round" stroke-linejoin="round"/>
<path d="M11 7V13" stroke="#2A2B2D" stroke-width="0.8" stroke-linecap="round" stroke-linejoin="round"/>
<path d="M4 5C4.18602 8.70118 4.35735 10.9519 4.80623 14.2463C4.87184 14.7278 4.90465 14.9686 5.02193 15.1531C5.12458 15.3147 5.2746 15.4457 5.44854 15.5256C5.64727 15.6169 5.89266 15.6169 6.38343 15.6169H11.6228C12.1115 15.6169 12.3559 15.6169 12.5542 15.526C12.7277 15.4466 12.8777 15.3162 12.9804 15.1554C13.0979 14.9716 13.1314 14.7321 13.1986 14.2531C13.6661 10.9178 13.832 8.67427 14 5" stroke="#2A2B2D" stroke-width="0.8" stroke-linecap="round" stroke-linejoin="round"/>
</svg>
