<svg width="18" height="18" viewBox="0 0 18 18" fill="none" xmlns="http://www.w3.org/2000/svg">
<path d="M2 9.32755H5.53235C5.59148 9.32755 5.62105 9.32755 5.64497 9.31303C5.66889 9.2985 5.68252 9.27227 5.7098 9.2198L6.80499 7.113C6.88254 6.96382 6.92131 6.88923 6.98192 6.88913C7.04253 6.88903 7.08155 6.96349 7.15959 7.11241L9.36075 11.3127C9.4332 11.4509 9.46943 11.52 9.52758 11.522C9.58573 11.524 9.62659 11.4575 9.7083 11.3245L11.2601 8.79908C11.2887 8.75251 11.3031 8.72922 11.3258 8.7165C11.3485 8.70378 11.3759 8.70378 11.4305 8.70378H16.1875" stroke="#2A2B2D" stroke-width="0.8" stroke-linecap="round"/>
<path fill-rule="evenodd" clip-rule="evenodd" d="M9 5.35536C9.42106 4.86281 10.1495 4.30975 11.2587 4.30975C13.1983 4.30975 14.5 6.13086 14.5 7.8267C14.5 11.3718 10.0866 14.0875 9 14.0875C7.91344 14.0875 3.5 11.3718 3.5 7.8267C3.5 6.13086 4.80167 4.30975 6.74133 4.30975C7.8505 4.30975 8.57894 4.86281 9 5.35536Z" stroke="#2A2B2D" stroke-width="0.8" stroke-linecap="round" stroke-linejoin="round"/>
</svg>
