<svg width="18" height="18" viewBox="0 0 18 18" fill="none" xmlns="http://www.w3.org/2000/svg">
<path d="M4.92911 13.2488L3.00003 12.135L6.05776 9.18895C6.36867 8.88939 6.52413 8.73961 6.70618 8.66696C6.86688 8.60284 7.04146 8.5815 7.21286 8.60504C7.40706 8.63171 7.59401 8.73964 7.9679 8.95551L10.4694 10.3997C10.6682 10.5146 10.7677 10.572 10.8445 10.6406C11.0751 10.8464 11.1975 11.1473 11.1761 11.4556C11.169 11.5584 11.1379 11.6689 11.0756 11.89V11.89L10.2328 16.3109L8.44397 15.2781M4.92911 13.2488L5.41056 12.4149M4.92911 13.2488L6.65518 14.2453M6.65518 14.2453L7.13662 13.4115M6.65518 14.2453L8.44397 15.2781M8.44397 15.2781L8.92542 14.4442" stroke="#2A2B2D" stroke-width="0.8" stroke-linecap="round" stroke-linejoin="round"/>
<path d="M10.2958 9.82359L13.7496 3.8414C14.0221 3.36942 13.8604 2.7659 13.3884 2.4934C12.9165 2.2209 12.3129 2.38262 12.0404 2.8546L8.58663 8.83678" stroke="#2A2B2D" stroke-width="0.8" stroke-linecap="round" stroke-linejoin="round"/>
<path d="M10.4271 13.2345L5.27731 10.2612" stroke="#2A2B2D" stroke-width="0.8" stroke-linecap="round" stroke-linejoin="round"/>
</svg>
