<svg width="18" height="18" viewBox="0 0 18 18" fill="none" xmlns="http://www.w3.org/2000/svg">
<path d="M12.8127 5.68988L8.02296 10.3044C7.85428 10.4669 7.76994 10.5481 7.70268 10.6413C7.64298 10.7241 7.59339 10.8137 7.55496 10.9082C7.51165 11.0147 7.48757 11.1293 7.43941 11.3585L7.15164 12.7281C7.13037 12.8293 7.11974 12.8799 7.13439 12.9161C7.14719 12.9478 7.17209 12.973 7.20355 12.9862C7.23955 13.0013 7.29029 12.9913 7.39177 12.9712L8.75463 12.7026C8.97449 12.6592 9.08442 12.6376 9.18727 12.5981C9.27857 12.5631 9.36556 12.5177 9.44653 12.4629C9.53775 12.4011 9.61844 12.3234 9.77982 12.1679L14.5967 7.52735M12.8127 5.68988L13.3547 5.16778C13.6129 4.919 13.742 4.79461 13.8891 4.74984C14.0184 4.71046 14.1569 4.71305 14.2847 4.75722C14.43 4.80743 14.5544 4.93655 14.8031 5.19478L15.1585 5.56365C15.4073 5.82188 15.5317 5.95099 15.5764 6.09804C15.6158 6.22739 15.6132 6.36588 15.5691 6.49367C15.5189 6.63894 15.3897 6.76333 15.1315 7.01211L14.5967 7.52735M12.8127 5.68988L14.5967 7.52735" stroke="#2A2B2D" stroke-width="0.8" stroke-linejoin="round"/>
<path d="M4.43919 3.06988C6.36549 1.44036 9.96387 2.38696 6.61571 6.85116C2.67495 12.1055 3.83215 13.6692 6.17561 13.4756" stroke="#2A2B2D" stroke-width="0.8" stroke-linecap="round" stroke-linejoin="round"/>
</svg>
