<svg width="18" height="18" viewBox="0 0 18 18" fill="none" xmlns="http://www.w3.org/2000/svg">
<path d="M4.58801 13.7203H13.4944" stroke="#2A2B2D" stroke-width="0.8" stroke-linecap="round"/>
<path d="M4.20668 10.5865L3 4.27966L4.7791 5.82998L4.7791 5.82998C5.12292 6.12958 5.29483 6.27938 5.48986 6.34239C5.66189 6.39797 5.84577 6.40587 6.02193 6.36526C6.22164 6.31922 6.40577 6.18472 6.77403 5.91571L8.0665 4.9716C8.40673 4.72307 8.57684 4.59881 8.76291 4.55104C8.92719 4.50886 9.0995 4.50916 9.26363 4.55191C9.44953 4.60033 9.61921 4.72519 9.95856 4.9749L11.0539 5.78089C11.3937 6.03091 11.5636 6.15593 11.7497 6.20433C11.914 6.24706 12.0865 6.24725 12.2509 6.20488C12.4371 6.15689 12.6073 6.03224 12.9476 5.78296L15 4.27966L13.8629 10.5704L13.8629 10.5704C13.7784 11.0383 13.7361 11.2722 13.6171 11.4475C13.5122 11.6021 13.366 11.7241 13.1953 11.7999C13.0016 11.8858 12.7639 11.8858 12.2885 11.8858H5.77818C5.30727 11.8858 5.07181 11.8858 4.87934 11.8011C4.70963 11.7265 4.56402 11.6061 4.45878 11.4534C4.33943 11.2803 4.29518 11.049 4.20668 10.5865Z" stroke="#2A2B2D" stroke-width="0.8" stroke-linecap="round" stroke-linejoin="round"/>
</svg>
