<svg width="18" height="18" viewBox="0 0 18 18" fill="none" xmlns="http://www.w3.org/2000/svg">
<path d="M2.66446 10.2873V6.9974C2.66446 6.43735 2.66446 6.15732 2.77345 5.94341C2.86933 5.75525 3.02231 5.60227 3.21047 5.50639C3.42438 5.3974 3.70441 5.3974 4.26446 5.3974H6.11153M2.66446 10.2873V13.5772C2.66446 14.1372 2.66446 14.4173 2.77345 14.6312C2.86933 14.8193 3.02231 14.9723 3.21047 15.0682C3.42438 15.1772 3.70441 15.1772 4.26446 15.1772H13.7355C14.2956 15.1772 14.5756 15.1772 14.7895 15.0682C14.9777 14.9723 15.1307 14.8193 15.2265 14.6312C15.3355 14.4173 15.3355 14.1372 15.3355 13.5772V10.2873M2.66446 10.2873C7.65986 12.2104 10.4356 12.2618 15.3355 10.2873M15.3355 10.2873V6.9974C15.3355 6.43735 15.3355 6.15732 15.2265 5.94341C15.1307 5.75525 14.9777 5.60227 14.7895 5.50639C14.5756 5.3974 14.2956 5.3974 13.7355 5.3974H11.8842M6.11153 5.3974V4.42292C6.11153 3.86287 6.11153 3.58285 6.22052 3.36894C6.31639 3.18078 6.46937 3.0278 6.65753 2.93193C6.87143 2.82293 7.15146 2.82293 7.7115 2.82292L10.2842 2.82287C10.8443 2.82286 11.1243 2.82286 11.3382 2.93185C11.5264 3.02772 11.6794 3.1807 11.7752 3.36887C11.8842 3.58278 11.8842 3.86281 11.8842 4.42287V5.3974M6.11153 5.3974H11.8842" stroke="#2A2B2D" stroke-width="0.8" stroke-linecap="round" stroke-linejoin="round"/>
<ellipse cx="9.00001" cy="9.81891" rx="0.24" ry="0.25" stroke="#2A2B2D" stroke-width="0.8"/>
</svg>
