<svg width="18" height="18" viewBox="0 0 18 18" fill="none" xmlns="http://www.w3.org/2000/svg">
<path fill-rule="evenodd" clip-rule="evenodd" d="M3.82044 11.1451C3.11694 11.6267 2.70744 12.5092 2.93931 13.4739C3.12525 14.2474 3.75263 14.8748 4.52613 15.0607C5.48906 15.2926 6.37062 14.8839 6.8545 14.1791L8.29081 15.6154C8.80312 16.1282 9.63438 16.1282 10.1467 15.6154L11.3997 14.3629C11.7423 14.0203 11.6123 13.4537 11.1586 13.284C10.6056 13.0753 10.2311 12.5052 10.3269 11.8595C10.4096 11.303 10.8651 10.8476 11.422 10.7653C12.0677 10.6704 12.6365 11.0449 12.8452 11.5983C13.0149 12.0516 13.5828 12.1811 13.9241 11.8381L15.6154 10.1467C16.1282 9.63438 16.1282 8.80312 15.6154 8.29081L14.1796 6.85494C14.8835 6.37063 15.2913 5.48994 15.0594 4.52744C14.8764 3.76609 14.2661 3.14715 13.5098 2.94975C12.6198 2.71748 11.6681 3.06049 11.1451 3.82044L9.70919 2.38456C9.19688 1.87181 8.36562 1.87181 7.85331 2.38456L6.599 3.63844C6.25644 3.981 6.38637 4.54756 6.84006 4.71731C7.39262 4.926 7.76756 5.49563 7.67175 6.14094C7.5895 6.69788 7.13362 7.15331 6.57712 7.236C5.93094 7.33094 5.36219 6.95644 5.1535 6.403C4.982 5.94931 4.41631 5.81981 4.07419 6.16369L2.38456 7.85331C1.87181 8.36562 1.87181 9.19688 2.38456 9.70919L3.82044 11.1451ZM13.5281 10.9967C13.1064 10.2394 12.2515 9.75862 11.2942 9.89994C10.3619 10.0373 9.59938 10.7999 9.46156 11.7309C9.31938 12.689 9.80019 13.5452 10.5579 13.9669L9.52806 14.9968C9.357 15.1674 9.0805 15.1674 8.90944 14.9968L7.27187 13.3588C6.95425 13.0425 6.42662 13.1291 6.22494 13.5294C5.96462 14.0453 5.3775 14.3655 4.73087 14.2102C4.27237 14.0995 3.9005 13.7276 3.78981 13.2691C3.6345 12.6225 3.95475 12.0354 4.47144 11.7746C4.87088 11.5725 4.9575 11.0462 4.64119 10.7281L3.00319 9.09056C2.83256 8.9195 2.83256 8.643 3.00319 8.47194L4.47013 7.005C4.88925 7.76012 5.74544 8.24269 6.70487 8.10138C7.63631 7.96356 8.39975 7.20144 8.53712 6.26912C8.67931 5.31187 8.19806 4.45613 7.44075 4.03438L8.47194 3.00319C8.643 2.83256 8.9195 2.83256 9.09056 3.00319L10.7272 4.63987C11.044 4.95662 11.5721 4.87088 11.7742 4.471C12.0349 3.95563 12.6216 3.63538 13.2678 3.79113C13.7267 3.90181 14.0982 4.27369 14.2089 4.73219C14.3642 5.37838 14.0448 5.96506 13.5286 6.22625C13.1291 6.42794 13.0434 6.956 13.3601 7.27275L14.9968 8.90944C15.1674 9.0805 15.1674 9.357 14.9968 9.52806L13.5281 10.9967Z" fill="#333333"/>
</svg>
