<svg width="18" height="18" viewBox="0 0 18 18" fill="none" xmlns="http://www.w3.org/2000/svg">
<path d="M3.5 14.0682V6L5.08482 7L6.37373 6L7.63093 7L8.99379 6L10.5257 7L11.8146 6L13.2303 7L14.5 6V14.0682C14.5 14.6283 14.5 14.9083 14.391 15.1222C14.2951 15.3104 14.1422 15.4634 13.954 15.5592C13.7401 15.6682 13.4601 15.6682 12.9 15.6682H5.1C4.53995 15.6682 4.25992 15.6682 4.04601 15.5592C3.85785 15.4634 3.70487 15.3104 3.60899 15.1222C3.5 14.9083 3.5 14.6283 3.5 14.0682Z" stroke="#2A2B2D" stroke-width="0.8" stroke-linecap="round" stroke-linejoin="round"/>
<path d="M5 14H13" stroke="#2A2B2D" stroke-width="0.8" stroke-linecap="round" stroke-linejoin="round"/>
<path d="M10.3744 6.33473C10.7574 3.92549 11.4843 1.47216 13.3767 1.88864C14.2719 2.08567 14.5378 2.77942 14.4718 3.69922M13.9874 6.43855C14.0916 6.12603 14.1494 5.71589 14.2609 5.35775M12.3851 3.27055C13.0851 3.20462 13.6513 3.3693 14.4718 3.69922M14.4718 3.69922C14.4361 4.19583 14.4432 4.77195 14.2609 5.35775M14.2609 5.35775C13.8323 5.05437 12.7239 4.72964 12.0554 4.78711" stroke="#2A2B2D" stroke-width="0.8" stroke-linecap="round" stroke-linejoin="round"/>
<path d="M5.19318 3.30111V3.00959C5.19318 2.81981 5.19318 2.72492 5.23011 2.65243C5.2626 2.58867 5.31444 2.53683 5.3782 2.50434C5.45069 2.46741 5.54558 2.46741 5.73536 2.46741H9.22094C9.41072 2.46741 9.50561 2.46741 9.5781 2.50434C9.64186 2.53683 9.6937 2.58867 9.72619 2.65243C9.76312 2.72492 9.76312 2.81981 9.76312 3.00959V3.30112C9.76312 3.4909 9.76312 3.58579 9.72619 3.65827C9.6937 3.72204 9.64186 3.77388 9.5781 3.80636C9.50561 3.8433 9.41072 3.8433 9.22094 3.8433H5.73536C5.54558 3.8433 5.45069 3.8433 5.3782 3.80636C5.31444 3.77388 5.2626 3.72204 5.23011 3.65827C5.19318 3.58579 5.19318 3.4909 5.19318 3.30111Z" stroke="#2A2B2D" stroke-width="0.8" stroke-linecap="round" stroke-linejoin="round"/>
<path d="M5.19313 3.84338C5.19313 3.84338 3.83767 5.12614 3.83768 6.2941M8.58177 6.2941C8.58177 5.81679 8.80388 5.29924 9.05106 4.87105C9.18846 4.63304 9.25716 4.51404 9.45545 4.42415C9.59039 4.36298 9.86497 4.35992 10.0012 4.41807C10.2015 4.50351 10.2701 4.61656 10.4075 4.84266C10.4347 4.88744 10.4617 4.93349 10.4882 4.98071" stroke="#2A2B2D" stroke-width="0.8" stroke-linecap="round" stroke-linejoin="round"/>
<path d="M7.18334 10.3292C7.54599 11.1408 8.68192 12 8.76517 12C8.84841 12 9.83975 11.2539 10.2538 10.5279C10.9302 9.34206 9.43544 8.51542 8.76516 9.32041C7.8232 8.53911 6.73258 9.32041 7.18334 10.3292Z" stroke="#2A2B2D" stroke-width="0.8" stroke-linecap="round" stroke-linejoin="round"/>
</svg>
